# xmcd CD database file
# Copyright (C) 1993-1996 Ti Kan
#
# Track frame offsets:
#  182
#  14402
#  30925
#  48817
#  62805
#  75157
#  87227
#  98475
#  110840
#  122767
#  134287
#  148902
#  163762
#  178137
#  188805
#  200307
#  216022
#  232300
#  251320
#  269692
#
# Disc length: 3851 seconds
#
# Revision: 2
# Processed by: cddbd v1.5.2PL0 Copyright (c) Steve Scherf et al.
# Submitted via: Advanced CD Ripper Pro 2.0
#
DISCID=170f0914
DTITLE=Various Artist - Het Beste Uit de Country Jukebox TOP100 Aller tijden cd1
DYEAR=2006
DGENRE=other
TTITLE0=Glenn Campbell - Rhinestone cowboy
TTITLE1=Kenny Rogers and Kim Carnes - Don't fall in love with a dreamer
TTITLE2=Alabama - Lady down on love
TTITLE3=Elvis Presley - Are you lonesome tonight
TTITLE4=Dave and Sugar - The door is always open
TTITLE5=Eddy Arnold - Make the world go away
TTITLE6=Don Gibson - Oh lonesome me
TTITLE7=Johnny Cash - I walk the line
TTITLE8=Skeeter Davis - The end of the world
TTITLE9=Freddy Fender - Before the next teardrop falls
TTITLE10=Olivia Newton-John - If you love me (let me know)
TTITLE11=Waylon Jennings - Luckenbach, Texas (back to the basics of love)
TTITLE12=Everly Brothers - The brand new Tennessee waltz
TTITLE13=Ronnie Milsap - Pure Love
TTITLE14=Billy 'Crash' Craddock - Rub it in
TTITLE15=Dirt Band (Harmony vocals Linda Ronstadt) - An American dream
TTITLE16=Dan Seals - Bop
TTITLE17=Keith Whitley - Don't close your eyes
TTITLE18=K.T. Oslin - Do ya'
TTITLE19=Restless Heart - I'll still be loving you
EXTD=
EXTT0=
EXTT1=
EXTT2=
EXTT3=
EXTT4=
EXTT5=
EXTT6=
EXTT7=
EXTT8=
EXTT9=
EXTT10=
EXTT11=
EXTT12=
EXTT13=
EXTT14=
EXTT15=
EXTT16=
EXTT17=
EXTT18=
EXTT19=
PLAYORDER=
